<svg id="visual" viewBox="0 0 900 300" width="900" height="300" xmlns="http://www.w3.org/2000/svg" xmlns:xlink="http://www.w3.org/1999/xlink" version="1.1"><path d="M0 96L21.5 92.8C43 89.7 86 83.3 128.8 79.8C171.7 76.3 214.3 75.7 257.2 78.7C300 81.7 343 88.3 385.8 93.5C428.7 98.7 471.3 102.3 514.2 102.2C557 102 600 98 642.8 93.7C685.7 89.3 728.3 84.7 771.2 85.8C814 87 857 94 878.5 97.5L900 101L900 0L878.5 0C857 0 814 0 771.2 0C728.3 0 685.7 0 642.8 0C600 0 557 0 514.2 0C471.3 0 428.7 0 385.8 0C343 0 300 0 257.2 0C214.3 0 171.7 0 128.8 0C86 0 43 0 21.5 0L0 0Z" fill="#fa7268"></path><path d="M0 62L21.5 64.5C43 67 86 72 128.8 77.8C171.7 83.7 214.3 90.3 257.2 88.2C300 86 343 75 385.8 74.5C428.7 74 471.3 84 514.2 88.7C557 93.3 600 92.7 642.8 91.3C685.7 90 728.3 88 771.2 82.3C814 76.7 857 67.3 878.5 62.7L900 58L900 0L878.5 0C857 0 814 0 771.2 0C728.3 0 685.7 0 642.8 0C600 0 557 0 514.2 0C471.3 0 428.7 0 385.8 0C343 0 300 0 257.2 0C214.3 0 171.7 0 128.8 0C86 0 43 0 21.5 0L0 0Z" fill="#ef5f67"></path><path d="M0 57L21.5 59.3C43 61.7 86 66.3 128.8 67.8C171.7 69.3 214.3 67.7 257.2 64.8C300 62 343 58 385.8 58.3C428.7 58.7 471.3 63.3 514.2 62.7C557 62 600 56 642.8 52.8C685.7 49.7 728.3 49.3 771.2 51.7C814 54 857 59 878.5 61.5L900 64L900 0L878.5 0C857 0 814 0 771.2 0C728.3 0 685.7 0 642.8 0C600 0 557 0 514.2 0C471.3 0 428.7 0 385.8 0C343 0 300 0 257.2 0C214.3 0 171.7 0 128.8 0C86 0 43 0 21.5 0L0 0Z" fill="#e34c67"></path><path d="M0 27L21.5 30.8C43 34.7 86 42.3 128.8 46.2C171.7 50 214.3 50 257.2 50.8C300 51.7 343 53.3 385.8 51.2C428.7 49 471.3 43 514.2 40.7C557 38.3 600 39.7 642.8 42.5C685.7 45.3 728.3 49.7 771.2 50.2C814 50.7 857 47.3 878.5 45.7L900 44L900 0L878.5 0C857 0 814 0 771.2 0C728.3 0 685.7 0 642.8 0C600 0 557 0 514.2 0C471.3 0 428.7 0 385.8 0C343 0 300 0 257.2 0C214.3 0 171.7 0 128.8 0C86 0 43 0 21.5 0L0 0Z" fill="#d53867"></path><path d="M0 15L21.5 17C43 19 86 23 128.8 22.7C171.7 22.3 214.3 17.7 257.2 16C300 14.3 343 15.7 385.8 17.7C428.7 19.7 471.3 22.3 514.2 21.7C557 21 600 17 642.8 16.8C685.7 16.7 728.3 20.3 771.2 20.3C814 20.3 857 16.7 878.5 14.8L900 13L900 0L878.5 0C857 0 814 0 771.2 0C728.3 0 685.7 0 642.8 0C600 0 557 0 514.2 0C471.3 0 428.7 0 385.8 0C343 0 300 0 257.2 0C214.3 0 171.7 0 128.8 0C86 0 43 0 21.5 0L0 0Z" fill="#c62368"></path></svg>